<svg width="291" height="199" fill="none" xmlns="http://www.w3.org/2000/svg"><circle cx="44" cy="88" r="44" fill="#A9F2FF"/><circle cx="190.5" cy="28.5" r="28.5" fill="#1AE8B7"/><circle cx="255" cy="119" r="36" fill="#FF57AE"/><circle cx="166.5" cy="175.5" r="23.5" fill="#FFC729"/><path d="M80 71l90-35" stroke="url(#paint0_linear)" stroke-width="10"/><path d="M93 71.5L81.5 65l4.5 9 7-2.5z" fill="#000"/><path d="M238.5 88l-30-40.5" stroke="url(#paint1_linear)" stroke-width="10"/><path d="M181 167.5l48.5-30.5" stroke="url(#paint2_linear)" stroke-width="10"/><path d="M214.5 64l-1-18.5s-1.822 3.036-3.5 4.5c-1.388 1.211-4 2.5-4 2.5l8.5 11.5zm-4 80.5l19.027-.01s-2.156-2.236-3.527-3.99c-1.134-1.452-2.5-4.5-2.5-4.5l-13 8.5z" fill="#000"/><defs><linearGradient id="paint0_linear" x1="112.5" y1="36" x2="66.5" y2="58" gradientUnits="userSpaceOnUse"><stop stop-color="#1AE8B7"/><stop offset="1" stop-color="#A9F2FF"/></linearGradient><linearGradient id="paint1_linear" x1="198.5" y1="57" x2="223" y2="96" gradientUnits="userSpaceOnUse"><stop offset=".143" stop-color="#1AE8B7"/><stop offset="1" stop-color="#FF57AE"/></linearGradient><linearGradient id="paint2_linear" x1="215.26" y1="125.159" x2="177.99" y2="152.219" gradientUnits="userSpaceOnUse"><stop offset=".143" stop-color="#FF57AE"/><stop offset="1" stop-color="#FFC729"/></linearGradient></defs></svg>